<?xml version="1.0" encoding="utf-8"?>
<!-- Generator: Adobe Illustrator 16.0.5, SVG Export Plug-In . SVG Version: 6.00 Build 0)  -->
<!DOCTYPE svg PUBLIC "-//W3C//DTD SVG 1.1//EN" "http://www.w3.org/Graphics/SVG/1.1/DTD/svg11.dtd">
<svg version="1.1" id="Layer_1" xmlns="http://www.w3.org/2000/svg" xmlns:xlink="http://www.w3.org/1999/xlink" x="0px" y="0px"
	 width="717px" height="357px" viewBox="0 0 717 357" enable-background="new 0 0 717 357" xml:space="preserve">
<path d="M102.461,172.067c-6.113,5.093-2.167,14.423,0.207,20.809c4.779,12.845,21.701,39.328,6.826,50.243
	c-1.691,1.241-2.19,4.521-1.009,6.231c18.291,26.521-36.518,41.602-52.895,50.134c-6.141,3.199-1.172,11.474,4.904,9.191
	c15.607-5.862,32.703-14.635,49.831-13.78c16.931,0.843,27.722,12.694,38.32,24.558c6.542,7.325,13.815,13.889,24.086,14.713
	c14.507,1.162,28.906-4.492,42.626-8.447c18.104-5.218,36.224-10.545,53.858-17.209c12.239-4.624,28.462-9.549,36.886-20.289
	c7.162-9.13,7.239-20.506,6.133-31.553c-0.796-7.941-3.314-18.561,1.879-24.974c5.534,10.884,10.487,23.588,20.042,30.892
	c12.131,9.271,25.465,1.74,35.854-6.451c1.838-1.449,1.967-4.292,1.01-6.232c-5.879-11.926-19.447-25.866-19.342-39.793
	c0.088-11.76,12.333-5.747,16.278,0.356c4.849,7.499,8.332,15.794,13.224,23.254c10.83,16.517,27.756,18.57,45.727,11.763
	c11.748-4.45,22.326-11.329,33.945-16.003c8.74-3.515,18.111-5.292,26.9-8.726c8.467-3.309,16.811-7.349,20.254-16.333
	c2.941-7.673-1.336-12.04-1.916-19.53c-0.355-4.582-1.602-8.159-4.404-11.878c-1.467-1.945-3.445-3.912-4.633-6.027
	c-1.662-2.963,0.902-10.433,5.006-8.816c3.566,1.405,5.943,4.994,8.57,7.611c3.115,3.105,6.822,5.273,10.111,8.165
	c8.925,7.846,16.94,23.113,31.033,19.714c24.367-5.878,46.626-27.264,64.553-43.639c23.62-21.574,46.168-44.813,73.92-61.171
	c4.026-2.374,3.358-7.983-0.937-9.579c-24.38-9.058-49.871-14.799-75.052-21.125c-19.818-4.979-37.191-9.837-55.576,1.922
	c-6.719,4.298-14.43,10.933-22.866,10.913c-6.349-0.015-14.795-0.757-16.974-7.774c-1.044-3.356-1.855-7.182-3.59-10.276
	c-3.469-6.18-8.764-8.718-15.879-7.889c-4.867,0.567-10.66,3.106-15.541,2.499c-3.818-0.476-7.627-1.801-11.295-2.921
	c-24.291-7.408-74.016-30.356-90.616,1.624c-5.723,11.026-3.183,24.771-1.278,36.427c1.597,9.77,4.701,22.369,0.548,31.97
	c-8.23-15.311-15.151-31.37-28.018-43.537c-1.937-1.83-5.388-2.386-7.366-0.193c-6.869,7.611-7.324,16.845-4.076,26.321
	c0.144,0.42,0.313,0.861,0.481,1.301c-1.438-3.476-2.894-6.953-4.449-10.39c-1.017-2.246-3.525-2.901-5.739-2.631
	c-36.548,4.453-76.468,7.79-109.796,24.725c-13.836,7.029-26.982,17.009-30.744,32.907c-3.994,16.876-2.046,34.282,1.291,51.12
	c-10.204,4.785-22.98-8.237-30.236-13.913c-11.133-8.706-23.547-17.853-38.386-17.293
	C116.191,163.359,108.514,167.026,102.461,172.067z M343.711,102.152c1.247,2.849,2.678,5.94,3.888,9.092
	C346.26,108.236,344.973,105.202,343.711,102.152z"/>
<g>
	<g>
		<g>
			<g>
				<path fill="#65C18E" d="M68.286,291.746c21.805-10.699,42.303-23.164,62.495-36.607c21.358-14.219,43.49-26.606,66.438-38.079
					c55.816-27.905,113.731-51.838,173.158-70.907c41.608-13.351,84.211-23.851,126.795-33.598
					c41.438-9.484,83.252-18.652,125.45-24.059c8.048-1.031,16.144-1.886,24.258-2.124c0.707-0.021,0.709-1.12,0-1.099
					c-15.888,0.466-31.744,2.978-47.405,5.532c-21.324,3.478-42.529,7.685-63.67,12.132c-37.982,7.99-75.621,17.232-113.197,26.92
					c-59.21,15.267-116.878,36.497-172.762,61.218c-27.812,12.303-55.462,25.376-82.12,40.032
					c-19.386,10.658-37.392,23.383-56.025,35.248c-14.164,9.018-28.899,17.047-43.969,24.441
					C67.095,291.109,67.652,292.057,68.286,291.746L68.286,291.746z"/>
			</g>
		</g>
		<g>
			<g>
				<path fill="#65C18E" d="M628.464,81.439c1.692-2.921,2.534-6.001,1.541-9.314c-0.203-0.677-1.265-0.389-1.061,0.292
					c0.912,3.042,0.12,5.793-1.43,8.468C627.159,81.499,628.108,82.052,628.464,81.439L628.464,81.439z"/>
			</g>
		</g>
		<g>
			<g>
				<path fill="#65C18E" d="M615.027,81.52c0.077-4.601-0.386-9.183,0.128-13.771c0.078-0.704-1.021-0.696-1.1,0
					c-0.514,4.589-0.051,9.171-0.128,13.771C613.916,82.229,615.016,82.228,615.027,81.52L615.027,81.52z"/>
			</g>
		</g>
		<g>
			<g>
				<path fill="#65C18E" d="M602.497,82.735c1.163-5.365,1.199-10.689,0.824-16.147c-0.049-0.703-1.148-0.708-1.1,0
					c0.369,5.363,0.361,10.573-0.785,15.855C601.287,83.134,602.347,83.428,602.497,82.735L602.497,82.735z"/>
			</g>
		</g>
		<g>
			<g>
				<path fill="#65C18E" d="M586.354,84.984c0.317-7.344,1.2-14.585,2.596-21.803c0.134-0.692-0.926-0.988-1.061-0.292
					c-1.414,7.317-2.312,14.647-2.635,22.095C585.225,85.693,586.323,85.69,586.354,84.984L586.354,84.984z"/>
			</g>
		</g>
		<g>
			<g>
				<path fill="#65C18E" d="M573.586,85.568c0.668-7.717,2.427-15.667,0.106-23.261c-0.207-0.676-1.268-0.388-1.061,0.292
					c2.289,7.488,0.514,15.364-0.146,22.969C572.426,86.275,573.525,86.269,573.586,85.568L573.586,85.568z"/>
			</g>
		</g>
		<g>
			<g>
				<path fill="#65C18E" d="M560.475,92.7c3.602-9.686-2.034-19.674,1.191-29.288c0.226-0.674-0.836-0.96-1.061-0.292
					c-3.234,9.64,2.409,19.605-1.191,29.288C559.167,93.073,560.229,93.358,560.475,92.7L560.475,92.7z"/>
			</g>
		</g>
		<g>
			<g>
				<path fill="#65C18E" d="M549.925,92.587c-0.928-9.612-4.25-18.771-5.178-28.382c-0.067-0.699-1.168-0.706-1.1,0
					c0.929,9.612,4.251,18.771,5.178,28.382C548.893,93.286,549.992,93.292,549.925,92.587L549.925,92.587z"/>
			</g>
		</g>
		<g>
			<g>
				<path fill="#65C18E" d="M530.821,95.305c0.977-7.425,1.219-14.794-1.092-21.997c-0.216-0.672-1.277-0.385-1.061,0.292
					c2.286,7.122,2.017,14.382,1.053,21.705C529.63,96.006,530.729,95.998,530.821,95.305L530.821,95.305z"/>
			</g>
		</g>
		<g>
			<g>
				<path fill="#65C18E" d="M511.879,101.354c6.21-6.34,1.314-17.39,2.432-25.133c0.1-0.693-0.959-0.991-1.061-0.292
					c-1.062,7.36,3.652,18.726-2.148,24.648C510.605,101.084,511.383,101.861,511.879,101.354L511.879,101.354z"/>
			</g>
		</g>
		<g>
			<g>
				<path fill="#65C18E" d="M493.891,104.127c6.631-4.997,7.146-19.011,5.227-26.32c-0.18-0.685-1.24-0.394-1.061,0.292
					c1.781,6.775,1.402,20.464-4.721,25.079C492.777,103.599,493.324,104.554,493.891,104.127L493.891,104.127z"/>
			</g>
		</g>
		<g>
			<g>
				<path fill="#65C18E" d="M480.49,53.375c9.133,15.526,8.828,32.673,4.221,49.616c-0.186,0.685,0.875,0.975,1.061,0.292
					c4.68-17.216,4.938-34.704-4.332-50.463C481.08,52.209,480.129,52.762,480.49,53.375L480.49,53.375z"/>
			</g>
		</g>
		<g>
			<g>
				<path fill="#65C18E" d="M472.99,109.023c5.146-5.796,5.264-15.191,5.738-22.505c0.311-4.771,0.477-9.401-0.168-14.159
					c-0.852-6.28-3.01-12.373-4.662-18.469c-0.186-0.684-1.246-0.393-1.061,0.292c2.734,10.088,5.566,19.439,4.932,30.02
					c-0.459,7.636-0.166,17.973-5.557,24.044C471.744,108.773,472.52,109.554,472.99,109.023L472.99,109.023z"/>
			</g>
		</g>
		<g>
			<g>
				<path fill="#65C18E" d="M462.582,108.668c-0.189-17.005,6.5-33.8,1.104-50.574c-0.217-0.672-1.279-0.385-1.061,0.292
					c5.363,16.666-1.332,33.381-1.143,50.282C461.49,109.376,462.59,109.377,462.582,108.668L462.582,108.668z"/>
			</g>
		</g>
		<g>
			<g>
				<path fill="#65C18E" d="M449.168,112.712c-0.152-18.308,10.232-36.618,4.432-54.841c-0.213-0.673-1.275-0.385-1.059,0.292
					c5.758,18.092-4.623,36.33-4.473,54.549C448.074,113.42,449.174,113.421,449.168,112.712L449.168,112.712z"/>
			</g>
		</g>
		<g>
			<g>
				<path fill="#65C18E" d="M439.494,121.293c-7.029-9.742-4.357-22.683-1.66-33.489c1.307-5.237,3.486-10.223,4.465-15.537
					c1.1-5.971-1.834-11.222-2.031-17.095c-0.023-0.707-1.121-0.709-1.098,0c0.09,2.68,0.705,5.185,1.387,7.773
					c1.094,4.148,1.045,7.872,0.045,12.046c-1.334,5.567-3.496,10.899-4.783,16.506c-2.291,9.976-3.611,21.569,2.727,30.351
					C438.955,122.417,439.91,121.869,439.494,121.293L439.494,121.293z"/>
			</g>
		</g>
		<g>
			<g>
				<path fill="#65C18E" d="M430.152,121.294c-4.607-8.643-8.283-16.639-6.924-26.667c1.463-10.804,3.605-21.552,5.156-32.355
					c0.1-0.693-0.959-0.991-1.059-0.292c-1.627,11.326-4.395,22.799-5.404,34.174c-0.855,9.622,2.861,17.401,7.281,25.695
					C429.535,122.475,430.484,121.919,430.152,121.294L430.152,121.294z"/>
			</g>
		</g>
		<g>
			<g>
				<path fill="#65C18E" d="M415.475,124.143c-6.576-9.352-9.688-18.152-6.785-29.485c1.434-5.592,3.721-10.848,4.924-16.521
					c1.193-5.635,1.785-11.381,2.941-17.026c0.143-0.692-0.918-0.986-1.059-0.292c-1.275,6.218-1.99,12.53-3.307,18.74
					c-1.369,6.459-4.248,12.442-5.488,18.943c-1.879,9.858,2.283,18.315,7.824,26.196
					C414.93,125.272,415.883,124.725,415.475,124.143L415.475,124.143z"/>
			</g>
		</g>
		<g>
			<g>
				<path fill="#65C18E" d="M402.92,59.723c3.266,9.822-3.385,21.081-5.025,30.731c-1.829,10.755,5.629,21.114,2.998,31.722
					c-0.17,0.688,0.891,0.979,1.061,0.292c2.727-10.993-4.693-21.748-2.793-32.936c1.637-9.622,8.109-20.207,4.818-30.101
					C403.756,58.762,402.695,59.049,402.92,59.723L402.92,59.723z"/>
			</g>
		</g>
		<g>
			<g>
				<path fill="#65C18E" d="M390.164,124.568c-6.361-11.715-3.012-26.491,0.249-38.648c1.495-5.577,3.091-10.957,3.683-16.729
					c0.744-7.267-0.201-14.645-0.994-21.865c-0.076-0.697-1.176-0.704-1.099,0c0.8,7.287,1.536,14.531,0.993,21.865
					c-0.557,7.529-3.307,14.657-5.039,21.953c-2.595,10.936-4.332,23.684,1.258,33.979
					C389.553,125.746,390.502,125.191,390.164,124.568L390.164,124.568z"/>
			</g>
		</g>
		<g>
			<g>
				<path fill="#65C18E" d="M381.178,128.74c-8.181-11.609-13.561-24.551-12.409-38.971c0.539-6.747,2.509-13.353,3.152-20.118
					c0.62-6.507,0.25-13.051-0.379-19.54c-0.067-0.699-1.167-0.706-1.099,0c0.683,7.052,0.903,14.036,0.23,21.096
					c-0.699,7.34-2.874,14.428-3.207,21.804c-0.597,13.232,5.321,25.725,12.762,36.284
					C380.634,129.869,381.587,129.321,381.178,128.74L381.178,128.74z"/>
			</g>
		</g>
		<g>
			<g>
				<path fill="#65C18E" d="M364.887,135.563c-7.474-10.658-10.545-22.667-9.738-35.61c0.377-6.037,1.842-11.795,1.926-17.875
					c0.095-6.865-0.62-13.662,0.02-20.523c0.065-0.706-1.034-0.7-1.099,0c-0.638,6.843-0.068,13.669-0.021,20.523
					c0.051,7.124-1.826,14.049-2.088,21.166c-0.436,11.858,3.278,23.216,10.051,32.874
					C364.342,136.694,365.295,136.146,364.887,135.563L364.887,135.563z"/>
			</g>
		</g>
		<g>
			<g>
				<path fill="#65C18E" d="M380.17,100.002c-7.419-12.577,2.974-28.787,1.652-42.297c-0.068-0.699-1.168-0.706-1.099,0
					c1.337,13.67-9.093,29.985-1.503,42.852C379.582,101.167,380.531,100.614,380.17,100.002L380.17,100.002z"/>
			</g>
		</g>
		<g>
			<g>
				<path fill="#65C18E" d="M354.608,137.311c-5.681-8.757-13.685-15.384-18.888-24.558c-4.423-7.799-8.721-14.697-16.165-19.952
					c-0.58-0.41-1.129,0.544-0.555,0.949c7.713,5.444,11.972,12.86,16.526,20.89c4.933,8.698,12.734,14.905,18.132,23.226
					C354.042,138.458,354.995,137.908,354.608,137.311L354.608,137.311z"/>
			</g>
		</g>
		<g>
			<g>
				<path fill="#65C18E" d="M346.365,141.709c-5.922-11.188-11.167-22.77-20.586-31.529c-0.518-0.482-1.297,0.293-0.777,0.777
					c9.354,8.698,14.538,20.206,20.414,31.307C345.748,142.89,346.696,142.335,346.365,141.709L346.365,141.709z"/>
			</g>
		</g>
		<g>
			<g>
				<path fill="#65C18E" d="M324.571,152.253c-3.713-10.519,2.538-23.897-4.135-33.46c-0.402-0.577-1.355-0.028-0.949,0.555
					c6.545,9.38,0.348,22.781,4.024,33.198C323.745,153.209,324.807,152.923,324.571,152.253L324.571,152.253z"/>
			</g>
		</g>
		<g>
			<g>
				<path fill="#65C18E" d="M303.87,159.093c-1.915-21.934-0.699-44.023-11.109-64.15c-0.326-0.63-1.274-0.074-0.949,0.555
					c10.309,19.932,9.064,41.885,10.959,63.596C302.832,159.793,303.932,159.799,303.87,159.093L303.87,159.093z"/>
			</g>
		</g>
		<g>
			<g>
				<path fill="#65C18E" d="M311.091,154.131c3.622-14.416-0.785-28.638-1.12-43.14c-0.016-0.708-1.115-0.709-1.099,0
					c0.332,14.402,4.758,28.523,1.159,42.848C309.859,154.527,310.918,154.818,311.091,154.131L311.091,154.131z"/>
			</g>
		</g>
		<g>
			<g>
				<path fill="#65C18E" d="M333.177,145.007c-3.875-5.753-2.277-12.929-5.176-19.04c-0.304-0.64-1.251-0.082-0.949,0.555
					c2.909,6.134,1.265,13.232,5.176,19.04C332.622,146.146,333.574,145.597,333.177,145.007L333.177,145.007z"/>
			</g>
		</g>
		<g>
			<g>
				<path fill="#65C18E" d="M285.853,167.168c8.647-5.633,5.913-17.86,4.183-26.328c-1.253-6.132-2.886-11.988-2.217-18.288
					c0.868-8.178,3.024-15.602,0.182-23.665c-0.234-0.664-1.296-0.378-1.06,0.292c2.601,7.38,1.009,14.147,0.009,21.643
					c-0.681,5.103-0.265,9.389,0.762,14.38c1.858,9.03,7.286,24.697-2.414,31.017C284.707,166.604,285.257,167.556,285.853,167.168
					L285.853,167.168z"/>
			</g>
		</g>
		<g>
			<g>
				<path fill="#65C18E" d="M67.07,281.109c6.091-7.947,6.173-24.23,0.468-32.364c-0.404-0.576-1.357-0.027-0.949,0.555
					c5.478,7.809,5.388,23.613-0.468,31.254C65.689,281.117,66.645,281.664,67.07,281.109L67.07,281.109z"/>
			</g>
		</g>
		<g>
			<g>
				<path fill="#65C18E" d="M83.577,276.521c3.515-3.928,3.581-10.141,3.633-15.104c0.08-7.623-1.015-15.297-2.346-22.786
					c-2.884-16.226-8.97-34.18-19.577-46.975c-0.453-0.546-1.226,0.236-0.777,0.777c10.078,12.157,15.864,29.038,18.904,44.405
					c1.371,6.932,2.288,13.97,2.625,21.029c0.263,5.519,0.724,13.449-3.238,17.876C82.328,276.27,83.103,277.05,83.577,276.521
					L83.577,276.521z"/>
			</g>
		</g>
		<g>
			<g>
				<path fill="#65C18E" d="M97.152,269.278c4.071-3.518,3.345-7.641,1.197-12.127c-1.561-3.259-3.753-6.152-4.896-9.612
					c-1.726-5.224-0.888-10.535-0.403-15.87c0.765-8.424-2-16.373-5.133-24.075c-3.368-8.281-7.861-16.147-13.235-23.285
					c-0.421-0.559-1.376-0.012-0.949,0.555c9.263,12.303,18.838,29.335,18.328,45.171c-0.223,6.903-1.679,13.188,1.088,19.815
					c2.421,5.798,9.78,12.987,3.225,18.651C95.837,268.965,96.618,269.739,97.152,269.278L97.152,269.278z"/>
			</g>
		</g>
		<g>
			<g>
				<path fill="#65C18E" d="M112.969,256.065c-3.351-6.492-5.601-13.346-7.32-20.428c-1.744-7.179-4.034-15.664-2.16-22.92
					c1.31-5.068-1.195-8.659-3.738-12.901c-3.501-5.841-5.309-12.516-8.433-18.571c-0.325-0.63-1.273-0.074-0.949,0.555
					c2.89,5.601,4.463,11.86,7.652,17.272c1.87,3.174,4.702,6.772,4.833,10.608c0.096,2.835-1.799,5.558-1.414,8.408
					c1.791,13.262,4.394,26.545,10.58,38.531C112.345,257.25,113.293,256.693,112.969,256.065L112.969,256.065z"/>
			</g>
		</g>
		<g>
			<g>
				<path fill="#65C18E" d="M126.803,246.192c-10.232-15.543-3.276-35.907-14.148-51.415c-0.404-0.576-1.357-0.027-0.949,0.555
					c10.854,15.483,3.891,35.833,14.148,51.415C126.242,247.336,127.194,246.786,126.803,246.192L126.803,246.192z"/>
			</g>
		</g>
		<g>
			<g>
				<path fill="#65C18E" d="M143.654,238.864c-3.65-5.049-1.223-9.832-1.652-15.415c-0.368-4.792-4.101-9.507-6.329-13.549
					c-0.342-0.621-1.292-0.066-0.949,0.555c3.306,5.999,7.022,11.21,5.957,18.393c-0.616,4.155-0.522,7.048,2.024,10.572
					C143.116,239.987,144.07,239.44,143.654,238.864L143.654,238.864z"/>
			</g>
		</g>
		<g>
			<g>
				<path fill="#65C18E" d="M154.814,227.094c-3.357-6.114,1.616-11.418,2.228-17.481c0.592-5.861-0.406-12.311-0.447-18.224
					c-0.041-5.772-1.839-11.446-3.113-17.022c-1.553-6.795,1.452-13.694,2.084-20.439c0.066-0.706-1.033-0.699-1.099,0
					c-0.596,6.353-2.709,12.312-2.454,18.75c0.113,2.852,1.356,5.999,2.015,8.776c0.923,3.888,1.452,7.783,1.48,11.782
					c0.045,6.461,1.541,14.085-0.411,20.299c-1.602,5.1-4.039,9.005-1.233,14.115C154.206,228.271,155.155,227.716,154.814,227.094
					L154.814,227.094z"/>
			</g>
		</g>
		<g>
			<g>
				<path fill="#65C18E" d="M169.909,213.387c-3.471-12.764-0.345-27.066-0.723-40.146c-0.098-3.379,1.082-6.792,1.888-10.04
					c0.728-2.932,0.595-5.664,0.632-8.652c0.078-6.247-4.609-12.022-7.469-17.194c-0.343-0.62-1.292-0.066-0.949,0.555
					c1.515,2.739,3.175,5.393,4.671,8.143c2.069,3.802,2.41,7.292,2.739,11.487c0.49,6.25-2.918,12.213-2.474,18.639
					c0.864,12.472-2.719,25.205,0.625,37.5C169.035,214.362,170.095,214.072,169.909,213.387L169.909,213.387z"/>
			</g>
		</g>
		<g>
			<g>
				<path fill="#65C18E" d="M181.565,207.324c-0.472-7.361,1.68-14.28,3.444-21.336c1.615-6.461,2.057-12.608,1.249-19.217
					c-1.812-14.827,0.163-29.785-2.702-44.547c-0.135-0.695-1.194-0.4-1.06,0.292c2.848,14.677,0.811,29.524,2.663,44.255
					c0.895,7.119,0.11,13.646-1.629,20.6c-1.658,6.632-3.507,13.052-3.063,19.953C180.512,208.028,181.611,208.032,181.565,207.324
					L181.565,207.324z"/>
			</g>
		</g>
		<g>
			<g>
				<path fill="#65C18E" d="M195.757,205.038c3.588-3.354,3.139-7.506,1.998-11.927c-0.844-3.266-2.137-6.357-2.4-9.754
					c-0.345-4.462,1.258-9.083,2.402-13.339c4.545-16.901,0.093-35.122-0.864-52.262c-0.039-0.705-1.138-0.708-1.099,0
					c0.918,16.457,5.237,34.173,1.299,50.447c-1.256,5.191-3.614,10.968-2.731,16.42c1,6.173,6.195,14.425,0.618,19.638
					C194.461,204.746,195.24,205.521,195.757,205.038L195.757,205.038z"/>
			</g>
		</g>
		<g>
			<g>
				<path fill="#65C18E" d="M214.375,199.191c3.97-5.312,6.969-10.91,6.611-17.687c-0.298-5.666-3.031-11.106-4.454-16.536
					c-1.081-4.125-1.452-8.459-1.238-12.712c0.226-4.494,2.002-8.884,2.625-13.335c1.205-8.611-3.6-17.344-4.433-25.864
					c-0.068-0.699-1.168-0.706-1.099,0c0.888,9.089,5.541,17.931,4.255,27.124c-0.965,6.894-3.158,12.65-2.167,19.761
					c0.847,6.077,3.154,11.644,4.715,17.535c2.115,7.979-1.028,14.823-5.766,21.161
					C213.001,199.205,213.957,199.751,214.375,199.191L214.375,199.191z"/>
			</g>
		</g>
		<g>
			<g>
				<path fill="#65C18E" d="M228.21,189.318c2.775-3.628,2.124-7.055,0.37-11.04c-1.335-3.033-3.112-5.77-3.445-9.15
					c-0.429-4.354,1.093-7.845,2.99-11.638c2.74-5.481,3.965-11.055,3.596-17.178c-0.484-8.011-3.319-15.618-3.061-23.723
					c0.023-0.709-1.076-0.707-1.099,0c-0.204,6.392,1.293,12.539,2.411,18.792c1.468,8.216,0.318,15.323-3.399,22.761
					c-1.882,3.766-3.366,8.019-2.402,12.292c1.384,6.137,7.775,12.206,3.091,18.329C226.831,189.327,227.786,189.873,228.21,189.318
					L228.21,189.318z"/>
			</g>
		</g>
		<g>
			<g>
				<path fill="#65C18E" d="M244.728,179.28c-1.28-4.967-2.761-9.875-3.826-14.896c-1.385-6.527-0.707-12.383,0.507-18.857
					c1.913-10.2,3.609-20.249,2.939-30.667c-0.045-0.704-1.145-0.708-1.099,0c0.786,12.241-1.78,24.044-3.94,36.016
					c-1.752,9.708,1.97,19.433,4.358,28.696C243.845,180.258,244.905,179.967,244.728,179.28L244.728,179.28z"/>
			</g>
		</g>
		<g>
			<g>
				<path fill="#65C18E" d="M256.914,174.121c-3.331-3.432-3.161-9.512-3.316-13.959c-0.148-4.252,0.056-8.512-0.192-12.761
					c-0.375-6.42,1.364-13.153,2.302-19.473c0.921-6.206,1.265-12.377,0.622-18.629c-0.071-0.698-1.171-0.705-1.099,0
					c1.394,13.558-3.333,26.516-2.835,39.984c0.274,7.424-2.018,19.682,3.741,25.616
					C256.63,175.407,257.407,174.629,256.914,174.121L256.914,174.121z"/>
			</g>
		</g>
		<g>
			<g>
				<path fill="#65C18E" d="M266.093,171.042c-5.988-11.63-7.155-23.359-5.182-36.16c1.587-10.295,3.75-20.548,2.484-31.016
					c-0.084-0.694-1.184-0.703-1.099,0c1.459,12.067-1.698,23.785-3.127,35.679c-1.356,11.295,0.785,21.974,5.974,32.051
					C265.469,172.227,266.417,171.671,266.093,171.042L266.093,171.042z"/>
			</g>
		</g>
		<g>
			<g>
				<path fill="#65C18E" d="M275.413,162.078c-1.958-10.006-1.043-20.299-1.096-30.425c-0.027-5.136,0.048-9.883,0.783-15.002
					c0.6-4.176,0.828-8.214-0.558-12.242c-0.229-0.666-1.291-0.38-1.06,0.292c1.859,5.402,0.639,10.839-0.102,16.335
					c-0.547,4.057-0.176,8.103-0.154,12.179c0.051,9.731-0.754,19.537,1.127,29.155C274.489,163.065,275.548,162.77,275.413,162.078
					L275.413,162.078z"/>
			</g>
		</g>
	</g>
</g>
</svg>
